<?xml version="1.0" encoding="UTF-8" standalone="no"?>
<!DOCTYPE svg PUBLIC "-//W3C//DTD SVG 1.1//EN"
 "http://www.w3.org/Graphics/SVG/1.1/DTD/svg11.dtd">
<!-- Generated by graphviz version 14.1.5 (0)
 -->
<!-- Title: G Pages: 1 -->
<svg width="685pt" height="780pt"
 viewBox="0.00 0.00 685.00 780.00" xmlns="http://www.w3.org/2000/svg" xmlns:xlink="http://www.w3.org/1999/xlink">
<g id="graph0" class="graph" transform="scale(1 1) rotate(0) translate(4 776)">
<title>G</title>
<polygon fill="white" stroke="none" points="-4,4 -4,-776 681,-776 681,4 -4,4"/>
<g id="clust1" class="cluster">
<title>cluster_V</title>
<polygon fill="none" stroke="black" points="8,-512 8,-636 158,-636 158,-512 8,-512"/>
</g>
<g id="clust2" class="cluster">
<title>cluster_T</title>
<polygon fill="none" stroke="black" points="18,-296 18,-348 669,-348 669,-296 18,-296"/>
</g>
<g id="clust3" class="cluster">
<title>cluster_G</title>
<polygon fill="none" stroke="black" points="10,-8 10,-60 326,-60 326,-8 10,-8"/>
</g>
<!-- bool regex_match() -->
<g id="node1" class="node">
<title>bool regex_match()</title>
<polygon fill="none" stroke="black" points="144.62,-772 21.38,-772 21.38,-736 144.62,-736 144.62,-772"/>
<text xml:space="preserve" text-anchor="middle" x="83" y="-748.95" font-family="Times,serif" font-size="14.00">bool regex_match()</text>
</g>
<!-- char* parse_src() -->
<g id="node2" class="node">
<title>char* parse_src()</title>
<polygon fill="none" stroke="black" points="137.88,-700 28.13,-700 28.13,-664 137.88,-664 137.88,-700"/>
<text xml:space="preserve" text-anchor="middle" x="83" y="-676.95" font-family="Times,serif" font-size="14.00">char* parse_src()</text>
</g>
<!-- bool regex_match()&#45;&gt;char* parse_src() -->
<g id="edge1" class="edge">
<title>bool regex_match()&#45;&gt;char* parse_src()</title>
<path fill="none" stroke="black" d="M83,-735.7C83,-728.41 83,-719.73 83,-711.54"/>
<polygon fill="black" stroke="black" points="86.5,-711.62 83,-701.62 79.5,-711.62 86.5,-711.62"/>
</g>
<!-- char* pre_parse_src() -->
<g id="node3" class="node">
<title>char* pre_parse_src()</title>
<polygon fill="none" stroke="black" points="149.88,-628 16.12,-628 16.12,-592 149.88,-592 149.88,-628"/>
<text xml:space="preserve" text-anchor="middle" x="83" y="-604.95" font-family="Times,serif" font-size="14.00">char* pre_parse_src()</text>
</g>
<!-- char* parse_src()&#45;&gt;char* pre_parse_src() -->
<g id="edge3" class="edge">
<title>char* parse_src()&#45;&gt;char* pre_parse_src()</title>
<path fill="none" stroke="black" d="M83,-663.7C83,-656.41 83,-647.73 83,-639.54"/>
<polygon fill="black" stroke="black" points="86.5,-647.51 83,-637.51 79.5,-647.51 86.5,-647.51"/>
</g>
<!-- char* _parse_src() -->
<g id="node4" class="node">
<title>char* _parse_src()</title>
<polygon fill="none" stroke="black" points="141.25,-556 24.75,-556 24.75,-520 141.25,-520 141.25,-556"/>
<text xml:space="preserve" text-anchor="middle" x="83" y="-532.95" font-family="Times,serif" font-size="14.00">char* _parse_src()</text>
</g>
<!-- char* pre_parse_src()&#45;&gt;char* _parse_src() -->
<g id="edge2" class="edge">
<title>char* pre_parse_src()&#45;&gt;char* _parse_src()</title>
<path fill="none" stroke="black" d="M83,-591.7C83,-584.41 83,-575.73 83,-567.54"/>
<polygon fill="black" stroke="black" points="86.5,-567.62 83,-557.62 79.5,-567.62 86.5,-567.62"/>
</g>
<!-- dst -->
<g id="node5" class="node">
<title>dst</title>
<ellipse fill="none" stroke="black" cx="83" cy="-466" rx="27" ry="18"/>
<text xml:space="preserve" text-anchor="middle" x="83" y="-460.95" font-family="Times,serif" font-size="14.00">dst</text>
</g>
<!-- char* _parse_src()&#45;&gt;dst -->
<g id="edge4" class="edge">
<title>char* _parse_src()&#45;&gt;dst</title>
<path fill="none" stroke="black" d="M83,-512C83,-506.67 83,-500.99 83,-495.54"/>
<polygon fill="black" stroke="black" points="86.5,-495.62 83,-485.62 79.5,-495.62 86.5,-495.62"/>
</g>
<!-- NFA compile_nfa() -->
<g id="node6" class="node">
<title>NFA compile_nfa()</title>
<polygon fill="none" stroke="black" points="144.25,-412 21.75,-412 21.75,-376 144.25,-376 144.25,-412"/>
<text xml:space="preserve" text-anchor="middle" x="83" y="-388.95" font-family="Times,serif" font-size="14.00">NFA compile_nfa()</text>
</g>
<!-- dst&#45;&gt;NFA compile_nfa() -->
<g id="edge5" class="edge">
<title>dst&#45;&gt;NFA compile_nfa()</title>
<path fill="none" stroke="black" d="M83,-447.7C83,-440.41 83,-431.73 83,-423.54"/>
<polygon fill="black" stroke="black" points="86.5,-423.62 83,-413.62 79.5,-423.62 86.5,-423.62"/>
</g>
<!-- NFA nfa_concat() -->
<g id="node11" class="node">
<title>NFA nfa_concat()</title>
<polygon fill="none" stroke="black" points="139.75,-340 26.25,-340 26.25,-304 139.75,-304 139.75,-340"/>
<text xml:space="preserve" text-anchor="middle" x="83" y="-316.95" font-family="Times,serif" font-size="14.00">NFA nfa_concat()</text>
</g>
<!-- NFA compile_nfa()&#45;&gt;NFA nfa_concat() -->
<g id="edge9" class="edge">
<title>NFA compile_nfa()&#45;&gt;NFA nfa_concat()</title>
<path fill="none" stroke="black" d="M83,-375.7C83,-368.41 83,-359.73 83,-351.54"/>
<polygon fill="black" stroke="black" points="86.5,-359.51 83,-349.51 79.5,-359.51 86.5,-359.51"/>
</g>
<!-- nfa -->
<g id="node7" class="node">
<title>nfa</title>
<ellipse fill="none" stroke="black" cx="83" cy="-250" rx="27" ry="18"/>
<text xml:space="preserve" text-anchor="middle" x="83" y="-244.95" font-family="Times,serif" font-size="14.00">nfa</text>
</g>
<!-- bool nfa_match() -->
<g id="node8" class="node">
<title>bool nfa_match()</title>
<polygon fill="none" stroke="black" points="138.25,-196 27.75,-196 27.75,-160 138.25,-160 138.25,-196"/>
<text xml:space="preserve" text-anchor="middle" x="83" y="-172.95" font-family="Times,serif" font-size="14.00">bool nfa_match()</text>
</g>
<!-- nfa&#45;&gt;bool nfa_match() -->
<g id="edge6" class="edge">
<title>nfa&#45;&gt;bool nfa_match()</title>
<path fill="none" stroke="black" d="M83,-231.7C83,-224.41 83,-215.73 83,-207.54"/>
<polygon fill="black" stroke="black" points="86.5,-207.62 83,-197.62 79.5,-207.62 86.5,-207.62"/>
</g>
<!-- void dfs_free_nfa() -->
<g id="node9" class="node">
<title>void dfs_free_nfa()</title>
<polygon fill="none" stroke="black" points="142.5,-124 21.5,-124 21.5,-88 142.5,-88 142.5,-124"/>
<text xml:space="preserve" text-anchor="middle" x="82" y="-100.95" font-family="Times,serif" font-size="14.00">void dfs_free_nfa()</text>
</g>
<!-- bool nfa_match()&#45;&gt;void dfs_free_nfa() -->
<g id="edge7" class="edge">
<title>bool nfa_match()&#45;&gt;void dfs_free_nfa()</title>
<path fill="none" stroke="black" d="M82.75,-159.7C82.65,-152.41 82.52,-143.73 82.41,-135.54"/>
<polygon fill="black" stroke="black" points="85.91,-135.57 82.27,-125.62 78.91,-135.67 85.91,-135.57"/>
</g>
<!-- res -->
<g id="node10" class="node">
<title>res</title>
<ellipse fill="none" stroke="black" cx="188" cy="-106" rx="27" ry="18"/>
<text xml:space="preserve" text-anchor="middle" x="188" y="-100.95" font-family="Times,serif" font-size="14.00">res</text>
</g>
<!-- bool nfa_match()&#45;&gt;res -->
<g id="edge8" class="edge">
<title>bool nfa_match()&#45;&gt;res</title>
<path fill="none" stroke="black" d="M109.23,-159.52C124.72,-149.19 144.32,-136.12 160.1,-125.6"/>
<polygon fill="black" stroke="black" points="161.72,-128.73 168.1,-120.27 157.84,-122.9 161.72,-128.73"/>
</g>
<!-- void collect_nodes() -->
<g id="node16" class="node">
<title>void collect_nodes()</title>
<polygon fill="none" stroke="black" points="145.5,-52 18.5,-52 18.5,-16 145.5,-16 145.5,-52"/>
<text xml:space="preserve" text-anchor="middle" x="82" y="-28.95" font-family="Times,serif" font-size="14.00">void collect_nodes()</text>
</g>
<!-- void dfs_free_nfa()&#45;&gt;void collect_nodes() -->
<g id="edge11" class="edge">
<title>void dfs_free_nfa()&#45;&gt;void collect_nodes()</title>
<path fill="none" stroke="black" d="M82,-87.7C82,-80.41 82,-71.73 82,-63.54"/>
<polygon fill="black" stroke="black" points="85.5,-71.51 82,-61.51 78.5,-71.51 85.5,-71.51"/>
</g>
<!-- NFA nfa_concat()&#45;&gt;nfa -->
<g id="edge10" class="edge">
<title>NFA nfa_concat()&#45;&gt;nfa</title>
<path fill="none" stroke="black" d="M83,-296C83,-290.67 83,-284.99 83,-279.54"/>
<polygon fill="black" stroke="black" points="86.5,-279.62 83,-269.62 79.5,-279.62 86.5,-279.62"/>
</g>
<!-- NFA nfa_union() -->
<g id="node12" class="node">
<title>NFA nfa_union()</title>
<polygon fill="none" stroke="black" points="266.5,-340 157.5,-340 157.5,-304 266.5,-304 266.5,-340"/>
<text xml:space="preserve" text-anchor="middle" x="212" y="-316.95" font-family="Times,serif" font-size="14.00">NFA nfa_union()</text>
</g>
<!-- NFA nfa_closure() -->
<g id="node13" class="node">
<title>NFA nfa_closure()</title>
<polygon fill="none" stroke="black" points="401.62,-340 284.38,-340 284.38,-304 401.62,-304 401.62,-340"/>
<text xml:space="preserve" text-anchor="middle" x="343" y="-316.95" font-family="Times,serif" font-size="14.00">NFA nfa_closure()</text>
</g>
<!-- NFA nfa_plus() -->
<g id="node14" class="node">
<title>NFA nfa_plus()</title>
<polygon fill="none" stroke="black" points="520.38,-340 419.62,-340 419.62,-304 520.38,-304 520.38,-340"/>
<text xml:space="preserve" text-anchor="middle" x="470" y="-316.95" font-family="Times,serif" font-size="14.00">NFA nfa_plus()</text>
</g>
<!-- NFA nfa_optional() -->
<g id="node15" class="node">
<title>NFA nfa_optional()</title>
<polygon fill="none" stroke="black" points="661.25,-340 538.75,-340 538.75,-304 661.25,-304 661.25,-340"/>
<text xml:space="preserve" text-anchor="middle" x="600" y="-316.95" font-family="Times,serif" font-size="14.00">NFA nfa_optional()</text>
</g>
<!-- void free_collect_nodes() -->
<g id="node17" class="node">
<title>void free_collect_nodes()</title>
<polygon fill="none" stroke="black" points="318.38,-52 163.62,-52 163.62,-16 318.38,-16 318.38,-52"/>
<text xml:space="preserve" text-anchor="middle" x="241" y="-28.95" font-family="Times,serif" font-size="14.00">void free_collect_nodes()</text>
</g>
</g>
</svg>
