<?xml version="1.0" encoding="UTF-8" standalone="no"?>
<!DOCTYPE svg PUBLIC "-//W3C//DTD SVG 1.1//EN"
 "http://www.w3.org/Graphics/SVG/1.1/DTD/svg11.dtd">
<!-- Generated by graphviz version 14.1.5 (0)
 -->
<!-- Title: G Pages: 1 -->
<svg width="568pt" height="780pt"
 viewBox="0.00 0.00 568.00 780.00" xmlns="http://www.w3.org/2000/svg" xmlns:xlink="http://www.w3.org/1999/xlink">
<g id="graph0" class="graph" transform="scale(1 1) rotate(0) translate(4 776)">
<title>G</title>
<polygon fill="white" stroke="none" points="-4,4 -4,-776 564,-776 564,4 -4,4"/>
<g id="clust1" class="cluster">
<title>cluster_V</title>
<polygon fill="none" stroke="black" points="8,-512 8,-636 206,-636 206,-512 8,-512"/>
</g>
<g id="clust2" class="cluster">
<title>cluster_T</title>
<polygon fill="none" stroke="black" points="42,-296 42,-348 552,-348 552,-296 42,-296"/>
</g>
<g id="clust3" class="cluster">
<title>cluster_G</title>
<polygon fill="none" stroke="black" points="22,-8 22,-60 338,-60 338,-8 22,-8"/>
</g>
<!-- bool regex_match() -->
<g id="node1" class="node">
<title>bool regex_match()</title>
<polygon fill="none" stroke="black" points="168.62,-772 45.38,-772 45.38,-736 168.62,-736 168.62,-772"/>
<text xml:space="preserve" text-anchor="middle" x="107" y="-748.95" font-family="Times,serif" font-size="14.00">bool regex_match()</text>
</g>
<!-- char* parse_src() -->
<g id="node2" class="node">
<title>char* parse_src()</title>
<polygon fill="none" stroke="black" points="161.88,-700 52.13,-700 52.13,-664 161.88,-664 161.88,-700"/>
<text xml:space="preserve" text-anchor="middle" x="107" y="-676.95" font-family="Times,serif" font-size="14.00">char* parse_src()</text>
</g>
<!-- bool regex_match()&#45;&gt;char* parse_src() -->
<g id="edge1" class="edge">
<title>bool regex_match()&#45;&gt;char* parse_src()</title>
<path fill="none" stroke="black" d="M107,-735.7C107,-728.41 107,-719.73 107,-711.54"/>
<polygon fill="black" stroke="black" points="110.5,-711.62 107,-701.62 103.5,-711.62 110.5,-711.62"/>
</g>
<!-- char* pre_parse_src() -->
<g id="node3" class="node">
<title>char* pre_parse_src()</title>
<ellipse fill="none" stroke="black" cx="107" cy="-610" rx="91.27" ry="18"/>
<text xml:space="preserve" text-anchor="middle" x="107" y="-604.95" font-family="Times,serif" font-size="14.00">char* pre_parse_src()</text>
</g>
<!-- char* parse_src()&#45;&gt;char* pre_parse_src() -->
<g id="edge3" class="edge">
<title>char* parse_src()&#45;&gt;char* pre_parse_src()</title>
<path fill="none" stroke="black" d="M107,-663.7C107,-656.41 107,-647.73 107,-639.54"/>
<polygon fill="black" stroke="black" points="110.5,-647.51 107,-637.51 103.5,-647.51 110.5,-647.51"/>
</g>
<!-- char* _parse_src() -->
<g id="node4" class="node">
<title>char* _parse_src()</title>
<ellipse fill="none" stroke="black" cx="107" cy="-538" rx="79.5" ry="18"/>
<text xml:space="preserve" text-anchor="middle" x="107" y="-532.95" font-family="Times,serif" font-size="14.00">char* _parse_src()</text>
</g>
<!-- char* pre_parse_src()&#45;&gt;char* _parse_src() -->
<g id="edge2" class="edge">
<title>char* pre_parse_src()&#45;&gt;char* _parse_src()</title>
<path fill="none" stroke="black" d="M107,-591.7C107,-584.41 107,-575.73 107,-567.54"/>
<polygon fill="black" stroke="black" points="110.5,-567.62 107,-557.62 103.5,-567.62 110.5,-567.62"/>
</g>
<!-- dst -->
<g id="node5" class="node">
<title>dst</title>
<ellipse fill="none" stroke="black" cx="107" cy="-466" rx="27" ry="18"/>
<text xml:space="preserve" text-anchor="middle" x="107" y="-460.95" font-family="Times,serif" font-size="14.00">dst</text>
</g>
<!-- char* _parse_src()&#45;&gt;dst -->
<g id="edge4" class="edge">
<title>char* _parse_src()&#45;&gt;dst</title>
<path fill="none" stroke="black" d="M107,-512C107,-506.67 107,-500.99 107,-495.54"/>
<polygon fill="black" stroke="black" points="110.5,-495.62 107,-485.62 103.5,-495.62 110.5,-495.62"/>
</g>
<!-- NFA compile_nfa() -->
<g id="node6" class="node">
<title>NFA compile_nfa()</title>
<polygon fill="none" stroke="black" points="168.25,-412 45.75,-412 45.75,-376 168.25,-376 168.25,-412"/>
<text xml:space="preserve" text-anchor="middle" x="107" y="-388.95" font-family="Times,serif" font-size="14.00">NFA compile_nfa()</text>
</g>
<!-- dst&#45;&gt;NFA compile_nfa() -->
<g id="edge5" class="edge">
<title>dst&#45;&gt;NFA compile_nfa()</title>
<path fill="none" stroke="black" d="M107,-447.7C107,-440.41 107,-431.73 107,-423.54"/>
<polygon fill="black" stroke="black" points="110.5,-423.62 107,-413.62 103.5,-423.62 110.5,-423.62"/>
</g>
<!-- NFA nfa_concat() -->
<g id="node11" class="node">
<title>NFA nfa_concat()</title>
<polygon fill="none" stroke="black" points="163.75,-340 50.25,-340 50.25,-304 163.75,-304 163.75,-340"/>
<text xml:space="preserve" text-anchor="middle" x="107" y="-316.95" font-family="Times,serif" font-size="14.00">NFA nfa_concat()</text>
</g>
<!-- NFA compile_nfa()&#45;&gt;NFA nfa_concat() -->
<g id="edge9" class="edge">
<title>NFA compile_nfa()&#45;&gt;NFA nfa_concat()</title>
<path fill="none" stroke="black" d="M107,-375.7C107,-368.41 107,-359.73 107,-351.54"/>
<polygon fill="black" stroke="black" points="110.5,-359.51 107,-349.51 103.5,-359.51 110.5,-359.51"/>
</g>
<!-- nfa -->
<g id="node7" class="node">
<title>nfa</title>
<ellipse fill="none" stroke="black" cx="107" cy="-250" rx="27" ry="18"/>
<text xml:space="preserve" text-anchor="middle" x="107" y="-244.95" font-family="Times,serif" font-size="14.00">nfa</text>
</g>
<!-- bool nfa_match() -->
<g id="node8" class="node">
<title>bool nfa_match()</title>
<polygon fill="none" stroke="black" points="162.25,-196 51.75,-196 51.75,-160 162.25,-160 162.25,-196"/>
<text xml:space="preserve" text-anchor="middle" x="107" y="-172.95" font-family="Times,serif" font-size="14.00">bool nfa_match()</text>
</g>
<!-- nfa&#45;&gt;bool nfa_match() -->
<g id="edge6" class="edge">
<title>nfa&#45;&gt;bool nfa_match()</title>
<path fill="none" stroke="black" d="M107,-231.7C107,-224.41 107,-215.73 107,-207.54"/>
<polygon fill="black" stroke="black" points="110.5,-207.62 107,-197.62 103.5,-207.62 110.5,-207.62"/>
</g>
<!-- void dfs_free_nfa() -->
<g id="node9" class="node">
<title>void dfs_free_nfa()</title>
<polygon fill="none" stroke="black" points="154.5,-124 33.5,-124 33.5,-88 154.5,-88 154.5,-124"/>
<text xml:space="preserve" text-anchor="middle" x="94" y="-100.95" font-family="Times,serif" font-size="14.00">void dfs_free_nfa()</text>
</g>
<!-- bool nfa_match()&#45;&gt;void dfs_free_nfa() -->
<g id="edge7" class="edge">
<title>bool nfa_match()&#45;&gt;void dfs_free_nfa()</title>
<path fill="none" stroke="black" d="M103.79,-159.7C102.42,-152.32 100.78,-143.52 99.25,-135.25"/>
<polygon fill="black" stroke="black" points="102.72,-134.79 97.45,-125.59 95.84,-136.06 102.72,-134.79"/>
</g>
<!-- res -->
<g id="node10" class="node">
<title>res</title>
<ellipse fill="none" stroke="black" cx="200" cy="-106" rx="27" ry="18"/>
<text xml:space="preserve" text-anchor="middle" x="200" y="-100.95" font-family="Times,serif" font-size="14.00">res</text>
</g>
<!-- bool nfa_match()&#45;&gt;res -->
<g id="edge8" class="edge">
<title>bool nfa_match()&#45;&gt;res</title>
<path fill="none" stroke="black" d="M129.99,-159.7C143.19,-149.76 159.82,-137.25 173.55,-126.91"/>
<polygon fill="black" stroke="black" points="175.43,-129.87 181.32,-121.06 171.22,-124.28 175.43,-129.87"/>
</g>
<!-- void collect_nodes() -->
<g id="node15" class="node">
<title>void collect_nodes()</title>
<polygon fill="none" stroke="black" points="157.5,-52 30.5,-52 30.5,-16 157.5,-16 157.5,-52"/>
<text xml:space="preserve" text-anchor="middle" x="94" y="-28.95" font-family="Times,serif" font-size="14.00">void collect_nodes()</text>
</g>
<!-- void dfs_free_nfa()&#45;&gt;void collect_nodes() -->
<g id="edge11" class="edge">
<title>void dfs_free_nfa()&#45;&gt;void collect_nodes()</title>
<path fill="none" stroke="black" d="M94,-87.7C94,-80.41 94,-71.73 94,-63.54"/>
<polygon fill="black" stroke="black" points="97.5,-71.51 94,-61.51 90.5,-71.51 97.5,-71.51"/>
</g>
<!-- NFA nfa_concat()&#45;&gt;nfa -->
<g id="edge10" class="edge">
<title>NFA nfa_concat()&#45;&gt;nfa</title>
<path fill="none" stroke="black" d="M107,-296C107,-290.67 107,-284.99 107,-279.54"/>
<polygon fill="black" stroke="black" points="110.5,-279.62 107,-269.62 103.5,-279.62 110.5,-279.62"/>
</g>
<!-- NFA nfa_union() -->
<g id="node12" class="node">
<title>NFA nfa_union()</title>
<polygon fill="none" stroke="black" points="290.5,-340 181.5,-340 181.5,-304 290.5,-304 290.5,-340"/>
<text xml:space="preserve" text-anchor="middle" x="236" y="-316.95" font-family="Times,serif" font-size="14.00">NFA nfa_union()</text>
</g>
<!-- NFA nfa_closure() -->
<g id="node13" class="node">
<title>NFA nfa_closure()</title>
<polygon fill="none" stroke="black" points="425.62,-340 308.38,-340 308.38,-304 425.62,-304 425.62,-340"/>
<text xml:space="preserve" text-anchor="middle" x="367" y="-316.95" font-family="Times,serif" font-size="14.00">NFA nfa_closure()</text>
</g>
<!-- NFA nfa_plus() -->
<g id="node14" class="node">
<title>NFA nfa_plus()</title>
<polygon fill="none" stroke="black" points="544.38,-340 443.62,-340 443.62,-304 544.38,-304 544.38,-340"/>
<text xml:space="preserve" text-anchor="middle" x="494" y="-316.95" font-family="Times,serif" font-size="14.00">NFA nfa_plus()</text>
</g>
<!-- void free_collect_nodes() -->
<g id="node16" class="node">
<title>void free_collect_nodes()</title>
<polygon fill="none" stroke="black" points="330.38,-52 175.62,-52 175.62,-16 330.38,-16 330.38,-52"/>
<text xml:space="preserve" text-anchor="middle" x="253" y="-28.95" font-family="Times,serif" font-size="14.00">void free_collect_nodes()</text>
</g>
</g>
</svg>
