<?xml version="1.0" encoding="UTF-8" standalone="no"?>
<!DOCTYPE svg PUBLIC "-//W3C//DTD SVG 1.1//EN"
 "http://www.w3.org/Graphics/SVG/1.1/DTD/svg11.dtd">
<!-- Generated by graphviz version 14.1.5 (0)
 -->
<!-- Title: G Pages: 1 -->
<svg width="594pt" height="636pt"
 viewBox="0.00 0.00 594.00 636.00" xmlns="http://www.w3.org/2000/svg" xmlns:xlink="http://www.w3.org/1999/xlink">
<g id="graph0" class="graph" transform="scale(1 1) rotate(0) translate(4 632)">
<title>G</title>
<polygon fill="white" stroke="none" points="-4,4 -4,-632 590,-632 590,4 -4,4"/>
<g id="clust1" class="cluster">
<title>cluster_T</title>
<polygon fill="none" stroke="black" points="68,-296 68,-348 578,-348 578,-296 68,-296"/>
</g>
<g id="clust2" class="cluster">
<title>cluster_G</title>
<polygon fill="none" stroke="black" points="8,-8 8,-60 324,-60 324,-8 8,-8"/>
</g>
<!-- bool regex_match() -->
<g id="node1" class="node">
<title>bool regex_match()</title>
<polygon fill="none" stroke="black" points="194.62,-628 71.38,-628 71.38,-592 194.62,-592 194.62,-628"/>
<text xml:space="preserve" text-anchor="middle" x="133" y="-604.95" font-family="Times,serif" font-size="14.00">bool regex_match()</text>
</g>
<!-- char* parse_src() -->
<g id="node2" class="node">
<title>char* parse_src()</title>
<polygon fill="none" stroke="black" points="187.88,-556 78.12,-556 78.12,-520 187.88,-520 187.88,-556"/>
<text xml:space="preserve" text-anchor="middle" x="133" y="-532.95" font-family="Times,serif" font-size="14.00">char* parse_src()</text>
</g>
<!-- bool regex_match()&#45;&gt;char* parse_src() -->
<g id="edge1" class="edge">
<title>bool regex_match()&#45;&gt;char* parse_src()</title>
<path fill="none" stroke="black" d="M133,-591.7C133,-584.41 133,-575.73 133,-567.54"/>
<polygon fill="black" stroke="black" points="136.5,-567.62 133,-557.62 129.5,-567.62 136.5,-567.62"/>
</g>
<!-- dst -->
<g id="node3" class="node">
<title>dst</title>
<ellipse fill="none" stroke="black" cx="133" cy="-466" rx="27" ry="18"/>
<text xml:space="preserve" text-anchor="middle" x="133" y="-460.95" font-family="Times,serif" font-size="14.00">dst</text>
</g>
<!-- char* parse_src()&#45;&gt;dst -->
<g id="edge2" class="edge">
<title>char* parse_src()&#45;&gt;dst</title>
<path fill="none" stroke="black" d="M133,-519.7C133,-512.41 133,-503.73 133,-495.54"/>
<polygon fill="black" stroke="black" points="136.5,-495.62 133,-485.62 129.5,-495.62 136.5,-495.62"/>
</g>
<!-- NFA compile_nfa() -->
<g id="node4" class="node">
<title>NFA compile_nfa()</title>
<polygon fill="none" stroke="black" points="194.25,-412 71.75,-412 71.75,-376 194.25,-376 194.25,-412"/>
<text xml:space="preserve" text-anchor="middle" x="133" y="-388.95" font-family="Times,serif" font-size="14.00">NFA compile_nfa()</text>
</g>
<!-- dst&#45;&gt;NFA compile_nfa() -->
<g id="edge3" class="edge">
<title>dst&#45;&gt;NFA compile_nfa()</title>
<path fill="none" stroke="black" d="M133,-447.7C133,-440.41 133,-431.73 133,-423.54"/>
<polygon fill="black" stroke="black" points="136.5,-423.62 133,-413.62 129.5,-423.62 136.5,-423.62"/>
</g>
<!-- NFA nfa_concat() -->
<g id="node9" class="node">
<title>NFA nfa_concat()</title>
<polygon fill="none" stroke="black" points="189.75,-340 76.25,-340 76.25,-304 189.75,-304 189.75,-340"/>
<text xml:space="preserve" text-anchor="middle" x="133" y="-316.95" font-family="Times,serif" font-size="14.00">NFA nfa_concat()</text>
</g>
<!-- NFA compile_nfa()&#45;&gt;NFA nfa_concat() -->
<g id="edge7" class="edge">
<title>NFA compile_nfa()&#45;&gt;NFA nfa_concat()</title>
<path fill="none" stroke="black" d="M133,-375.7C133,-368.41 133,-359.73 133,-351.54"/>
<polygon fill="black" stroke="black" points="136.5,-359.51 133,-349.51 129.5,-359.51 136.5,-359.51"/>
</g>
<!-- nfa -->
<g id="node5" class="node">
<title>nfa</title>
<ellipse fill="none" stroke="black" cx="133" cy="-250" rx="27" ry="18"/>
<text xml:space="preserve" text-anchor="middle" x="133" y="-244.95" font-family="Times,serif" font-size="14.00">nfa</text>
</g>
<!-- bool nfa_match() -->
<g id="node6" class="node">
<title>bool nfa_match()</title>
<polygon fill="none" stroke="black" points="188.25,-196 77.75,-196 77.75,-160 188.25,-160 188.25,-196"/>
<text xml:space="preserve" text-anchor="middle" x="133" y="-172.95" font-family="Times,serif" font-size="14.00">bool nfa_match()</text>
</g>
<!-- nfa&#45;&gt;bool nfa_match() -->
<g id="edge4" class="edge">
<title>nfa&#45;&gt;bool nfa_match()</title>
<path fill="none" stroke="black" d="M133,-231.7C133,-224.41 133,-215.73 133,-207.54"/>
<polygon fill="black" stroke="black" points="136.5,-207.62 133,-197.62 129.5,-207.62 136.5,-207.62"/>
</g>
<!-- void dfs_free_nfa() -->
<g id="node7" class="node">
<title>void dfs_free_nfa()</title>
<polygon fill="none" stroke="black" points="140.5,-124 19.5,-124 19.5,-88 140.5,-88 140.5,-124"/>
<text xml:space="preserve" text-anchor="middle" x="80" y="-100.95" font-family="Times,serif" font-size="14.00">void dfs_free_nfa()</text>
</g>
<!-- bool nfa_match()&#45;&gt;void dfs_free_nfa() -->
<g id="edge5" class="edge">
<title>bool nfa_match()&#45;&gt;void dfs_free_nfa()</title>
<path fill="none" stroke="black" d="M119.9,-159.7C113.87,-151.73 106.58,-142.1 99.89,-133.26"/>
<polygon fill="black" stroke="black" points="102.69,-131.17 93.86,-125.31 97.11,-135.4 102.69,-131.17"/>
</g>
<!-- res -->
<g id="node8" class="node">
<title>res</title>
<ellipse fill="none" stroke="black" cx="186" cy="-106" rx="27" ry="18"/>
<text xml:space="preserve" text-anchor="middle" x="186" y="-100.95" font-family="Times,serif" font-size="14.00">res</text>
</g>
<!-- bool nfa_match()&#45;&gt;res -->
<g id="edge6" class="edge">
<title>bool nfa_match()&#45;&gt;res</title>
<path fill="none" stroke="black" d="M146.1,-159.7C152.47,-151.28 160.24,-141.02 167.23,-131.79"/>
<polygon fill="black" stroke="black" points="169.97,-133.96 173.22,-123.88 164.39,-129.74 169.97,-133.96"/>
</g>
<!-- void collect_nodes() -->
<g id="node13" class="node">
<title>void collect_nodes()</title>
<polygon fill="none" stroke="black" points="143.5,-52 16.5,-52 16.5,-16 143.5,-16 143.5,-52"/>
<text xml:space="preserve" text-anchor="middle" x="80" y="-28.95" font-family="Times,serif" font-size="14.00">void collect_nodes()</text>
</g>
<!-- void dfs_free_nfa()&#45;&gt;void collect_nodes() -->
<g id="edge9" class="edge">
<title>void dfs_free_nfa()&#45;&gt;void collect_nodes()</title>
<path fill="none" stroke="black" d="M80,-87.7C80,-80.41 80,-71.73 80,-63.54"/>
<polygon fill="black" stroke="black" points="83.5,-71.51 80,-61.51 76.5,-71.51 83.5,-71.51"/>
</g>
<!-- NFA nfa_concat()&#45;&gt;nfa -->
<g id="edge8" class="edge">
<title>NFA nfa_concat()&#45;&gt;nfa</title>
<path fill="none" stroke="black" d="M133,-296C133,-290.67 133,-284.99 133,-279.54"/>
<polygon fill="black" stroke="black" points="136.5,-279.62 133,-269.62 129.5,-279.62 136.5,-279.62"/>
</g>
<!-- NFA nfa_union() -->
<g id="node10" class="node">
<title>NFA nfa_union()</title>
<polygon fill="none" stroke="black" points="316.5,-340 207.5,-340 207.5,-304 316.5,-304 316.5,-340"/>
<text xml:space="preserve" text-anchor="middle" x="262" y="-316.95" font-family="Times,serif" font-size="14.00">NFA nfa_union()</text>
</g>
<!-- NFA nfa_closure() -->
<g id="node11" class="node">
<title>NFA nfa_closure()</title>
<polygon fill="none" stroke="black" points="451.62,-340 334.38,-340 334.38,-304 451.62,-304 451.62,-340"/>
<text xml:space="preserve" text-anchor="middle" x="393" y="-316.95" font-family="Times,serif" font-size="14.00">NFA nfa_closure()</text>
</g>
<!-- NFA nfa_plus() -->
<g id="node12" class="node">
<title>NFA nfa_plus()</title>
<polygon fill="none" stroke="black" points="570.38,-340 469.62,-340 469.62,-304 570.38,-304 570.38,-340"/>
<text xml:space="preserve" text-anchor="middle" x="520" y="-316.95" font-family="Times,serif" font-size="14.00">NFA nfa_plus()</text>
</g>
<!-- void free_collect_nodes() -->
<g id="node14" class="node">
<title>void free_collect_nodes()</title>
<polygon fill="none" stroke="black" points="316.38,-52 161.62,-52 161.62,-16 316.38,-16 316.38,-52"/>
<text xml:space="preserve" text-anchor="middle" x="239" y="-28.95" font-family="Times,serif" font-size="14.00">void free_collect_nodes()</text>
</g>
</g>
</svg>
